<?xml version="1.0" encoding="UTF-8"?>
<!DOCTYPE svg PUBLIC "-//W3C//DTD SVG 1.1//EN" "http://www.w3.org/Graphics/SVG/1.1/DTD/svg11.dtd">
<!-- Creator: CorelDRAW -->
<svg xmlns="http://www.w3.org/2000/svg" xml:space="preserve" width="76.2mm" height="76.2mm" version="1.1" style="shape-rendering:geometricPrecision; text-rendering:geometricPrecision; image-rendering:optimizeQuality; fill-rule:evenodd; clip-rule:evenodd"
viewBox="0 0 7620 7620"
 xmlns:xlink="http://www.w3.org/1999/xlink"
 xmlns:xodm="http://www.corel.com/coreldraw/odm/2003">
 <defs>
  <style type="text/css">
   <![CDATA[
    .fil0 {fill:#1F1C1C}
    .fil1 {fill:#1F1D1D}
    .fil2 {fill:#201E1E}
   ]]>
  </style>
 </defs>
 <g id="Layer_x0020_1">
  <metadata id="CorelCorpID_0Corel-Layer"/>
  <g id="_105553364500064">
   <path class="fil0" d="M4487.34 5139.27l0 0zm-719.67 -440.26l50.8 0 0 8.46 -50.8 0 0 -8.46zm-338.66 -93.14l0 93.14 -59.27 0c9.97,-18.85 16.32,-33.32 23.77,-52.43 12.97,-33.28 3.55,-32.18 35.5,-40.71zm-203.2 84.67c0,-22.99 30.29,0 7.59,0.46 -8.55,0.18 -7.59,18.79 -7.59,-0.46zm524.93 -33.87l67.73 0 0 16.94 -67.73 0 0 -16.94zm-76.2 0l0 -42.33 33.87 0 0 67.73c-23.91,-1.99 -33.87,0.2 -33.87,-25.4zm-67.73 25.4l0 -67.73 33.86 0 0 42.33c0,25.98 -10.02,22.91 -33.86,25.4zm-67.74 25.4l-50.8 0 0 -93.13c62.63,0 47.08,-1.05 93.14,67.73 -19.3,-4.49 -19.47,-6.56 -42.34,-8.46l0 33.86zm279.4 -93.13l0 25.4 -50.8 0c9.28,-34.75 6.31,-25.4 50.8,-25.4zm-93.13 25.4l0 -25.4 16.93 0c-8.11,33.87 -16.52,24.49 -16.93,25.4zm-143.93 -8.47c-14.52,1.81 -11.97,-24.98 -0.58,-11.29 0,0 0.3,0.74 0.3,0.79 0.02,0.13 0.25,2.23 0.27,2.44 0.05,0.74 7.06,7.19 0.01,8.06zm-338.67 -33.86l0 -25.4 42.34 0c0,70.75 -5.29,67.95 8.46,127 -27.29,-11.02 -50.8,-72.64 -50.8,-101.6zm-59.26 -8.47c0,-21.66 13.4,-1.36 5.03,0 -0.1,0.02 -5.03,23.63 -5.03,0zm237.06 -8.47l2.53 2.53c-0.17,-0.17 -3.37,-1.68 -2.53,-2.53zm-93.13 118.54l0 -127 59.26 0 -39.16 96.3c-5.96,11.73 -3.94,7.97 -9.24,16.16 -10.2,15.77 -3.48,6.05 -10.86,14.54zm1422.39 -228.6l211.67 0 0 186.26c0,37.65 20.08,-4.05 8.47,50.8l-407.06 0.61c-103.25,0.03 -50.14,-25.19 -50.14,-51.41l0 -186.26 211.66 0 0 67.73 25.4 0 0 -67.73zm-1862.66 16.93l2.53 2.52c-0.17,-0.16 -3.37,-1.68 -2.53,-2.52zm-84.66 -160.87l16.93 0 0 169.34 -16.93 0 0 -169.34zm-76.2 160.87l2.52 2.52c-0.16,-0.16 -3.36,-1.68 -2.52,-2.52zm2175.92 -93.13c44.64,0 40.44,-8.77 59.27,16.93 -44.64,0 -40.44,8.76 -59.27,-16.93zm-381 16.93l0 -16.93 59.27 0c-18.83,25.69 -14.63,16.93 -59.27,16.93zm685.8 -59.27l2.53 2.53c-0.17,-0.17 -3.37,-1.68 -2.53,-2.53zm-948.26 0l2.53 2.53c-0.17,-0.17 -3.37,-1.68 -2.53,-2.53zm-448.73 -25.4l0 25.4 -143.94 0c9.15,-34.23 11.62,-26.49 58.54,-26.13 28.46,0.22 56.84,0.73 85.4,0.73zm-177.8 0l16.93 0 0 25.4 -16.93 0 0 -25.4zm-25.4 0l0 25.4 -50.8 0c9.28,-34.75 6.31,-25.4 50.8,-25.4zm-101.6 0l25.4 0 0 25.4 -25.4 0 0 -25.4zm1396.99 -16.93l59.27 0 0 25.4 -59.27 0 0 -25.4zm-93.13 0l16.93 0 0 25.4 -16.93 0 0 -25.4zm-59.27 0l33.87 0 0 25.4 -33.87 0 0 -25.4zm-59.26 0l33.86 0 0 25.4 -33.86 0 0 -25.4zm-50.8 0c27.69,10.03 6.15,-10.98 25.4,25.4l-25.4 0 0 -25.4zm-127 0l59.26 0 0 25.4 -59.26 0 0 -25.4zm-237.07 -42.33l127 0 0 67.73 -127 0 0 -67.73zm-1388.53 59.26l2.53 2.53c-0.17,-0.17 -3.37,-1.68 -2.53,-2.53zm-160.86 0l2.52 2.53c-0.16,-0.17 -3.36,-1.68 -2.52,-2.53zm2345.26 -59.26l127 0 0 67.73 -127 0c16.96,-30.19 8.41,-50.77 0,-67.73zm-795.87 -93.14l127 0 0 67.74 -127 0 0 -67.74zm-1354.66 59.27l0 0zm-228.6 0l0 0zm228.6 0l-8.47 -8.47 8.47 8.47zm-220.13 -8.47l-8.47 8.47 8.47 -8.47zm2184.39 -42.33l44.26 40.41 -44.26 1.92 0 -42.33zm-52.72 -1.92l1.92 44.25 -42.33 0 40.41 -44.25zm-192.81 10.39c27.82,7.43 27.88,12.28 42.33,33.86l-42.33 0 0 -33.86zm-52.73 -10.39l1.93 44.25 -42.34 0 40.41 -44.25zm-1674.47 44.25l-8.46 -8.46 8.46 8.46zm-203.2 -8.46l-8.46 8.46 8.46 -8.46zm194.74 0l-8.47 -8.47 8.47 8.47zm-186.27 -8.47l-8.47 8.47 8.47 -8.47zm177.8 0l-8.47 -8.47 8.47 8.47zm-169.33 -8.47l-8.47 8.47 8.47 -8.47zm160.86 0l0 0zm-160.86 0l0 0zm2345.26 -25.4l127 0 0 67.74 -127 0c16.96,-30.2 8.41,-50.77 0,-67.74zm-321.74 42.34c0,-96.65 -11.97,-84.67 84.67,-84.67 -9.48,26.2 -58.89,67.41 -84.67,84.67zm-110.06 -84.67l84.66 0 0 84.67c-19.95,-13.37 -26.45,-22.72 -44.44,-40.22l-40.22 -44.45zm-1024.47 93.13l84.67 0 3.17 -31.19c1.47,-13.14 5.3,-29.99 5.3,-53.47l101.6 0 8.46 169.33 -313.26 0 0 -169.33c99.91,0 100.25,-19.36 108.59,70.97 0.12,1.25 0.33,3.94 0.42,4.99 0.09,0.95 0.45,3.76 0.52,4.49 0.07,0.69 -0.07,2.93 0.53,4.21zm1261.53 -169.33c0,-21.66 13.41,-1.36 5.04,0 -0.1,0.02 -5.04,23.64 -5.04,0zm169.34 -101.6l118.53 0 0 76.2 -118.53 0 0 -76.2zm-135.47 50.8l0 -50.8 110.07 0 0 76.2 -118.54 0c5.81,-10.33 8.47,-9.05 8.47,-25.4zm-406.4 0l0 -50.8 59.27 0 0 76.2 -67.74 0c5.81,-10.33 8.47,-9.05 8.47,-25.4zm-135.46 -50.8l118.53 0 0 76.2 -118.53 0 0 -76.2zm-787.4 118.53l-76.2 0 0 -220.13c0,-32.44 -3.24,-5.1 12.67,-21.19 5.86,-5.93 2.36,-2.75 9.35,-7.58l37.36 -13.45c10.56,-1.29 30.69,-0.11 42.22,-0.11l0 177.8c0,23.93 18.42,84.66 -25.4,84.66zm-719.67 -93.13c29.24,0 36.71,26.67 42.34,50.8 -13.73,15.8 -22.4,23.32 -42.34,33.87 -19.93,-10.55 -28.6,-18.07 -42.33,-33.87 5.62,-24.13 13.09,-50.8 42.33,-50.8zm-127 33.87c0,-48.62 59.27,-48.62 59.27,0 0,36.11 -59.27,36.11 -59.27,0zm973.67 -67.73l0 -135.47c25.01,0 55.16,-5.08 76.92,7.75 1.57,0.93 3.59,2.37 5,3.46 15.67,12.19 19.68,15.82 19.68,31.12l0 220.13 -101.6 0 -3.53 -44.88c1.04,-26.99 8.94,-10.45 8.16,-44.76 -0.01,-0.61 -4.63,-26.01 -4.63,-37.35zm-1032.93 33.86c10.02,-27.69 -10.99,-6.15 25.4,-25.4 -6.61,18.25 2.3,5.82 -9.21,16.19 -3.98,3.59 -13.71,5.98 -16.19,9.21zm220.13 -25.4c1.65,-1.65 35.5,-1.72 17.7,11.82 -8.98,6.83 -22.65,-6.87 -17.7,-11.82zm2150.53 -84.66l118.53 0 0 67.73 -118.53 0 0 -67.73zm-677.33 0l118.53 0 0 67.73 -118.53 0 0 -67.73zm380.99 -67.74l22.13 28.68c9.04,13.1 12.94,19.64 20.22,30.58 15.73,23.65 28.46,41.54 42.32,67.74l-84.67 0 0 -127zm-25.4 0l0 127 -84.66 0c13.09,-24.75 22.47,-38.04 38.93,-62.67l45.73 -64.33zm177.8 67.74l118.54 0 0 67.73 -118.54 0c16.97,-30.19 8.41,-50.77 0,-67.73zm-406.4 0l67.74 0 0 67.73 -67.74 0c16.97,-30.19 8.41,-50.77 0,-67.73zm-1041.39 668.86l-211.67 0c27.79,-119.28 109.07,-1142.12 127,-1159.93 11.15,-11.07 84.67,32.87 84.67,59.27 0,191.11 -13.53,460.38 -0.45,618.51l1.12 330.44c-0.58,54.08 -7.75,44.5 -13.08,54.88 -9.83,19.15 -13.89,12.61 -3.89,44.22 0.63,2 1.69,4.21 2.41,6.22 0.73,1.99 1.9,4.07 2.66,6.07l11.23 40.32zm1303.86 -762l84.67 0 0 118.54c-21.79,-15.97 -66.48,-91.38 -84.67,-118.54zm-127 118.54l0 -118.54 84.67 0c-18.19,27.16 -62.88,102.57 -84.67,118.54zm211.67 -262.47l0 118.53 -84.67 0c14.39,-21.49 25.02,-36.87 39.61,-61.99 14.49,-24.97 23.41,-42.05 45.06,-56.54zm-211.67 -8.47l84.67 127 -84.67 0 0 -127zm-905.93 -50.8l-8.74 42.06c0.59,-10.43 -0.02,-12.78 2.07,-23.33 3.68,-18.66 0.05,-8.29 6.67,-18.73zm-135.47 0c10.14,15.98 16.94,146.78 16.94,169.34l-16.94 -169.34zm194.74 50.8l16.93 0 0 93.14 -16.93 0 0 -93.14zm-270.94 0l16.94 0 0 93.14 -16.94 0 0 -93.14zm1117.6 -50.8l93.13 0 0 152.4c-5.28,-6.07 -2.74,-1.83 -11.62,-13.78 -20.98,-28.22 -78.27,-113.37 -81.51,-138.62zm118.53 143.94l0 -143.94 93.14 0c-8.47,36.35 -67.42,126.71 -93.14,143.94zm-1024.46 -143.94l8.47 -59.26c0,16.99 1.93,42.87 -8.47,59.26zm-135.47 0c-1.14,-1.81 -2.29,-6.98 -2.57,-5.88l2.57 5.88zm203.2 -25.4c0,-22.98 30.29,0 7.59,0.47 -8.55,0.17 -7.59,18.78 -7.59,-0.47zm-287.86 0c0.04,-2.82 8.91,-0.95 10.58,-0.68 1.25,0.2 9.8,-19.27 7.45,2.49 0,0.03 -0.81,0.99 -0.9,1.01 -11.69,2.68 -17.43,17.79 -17.13,-2.82zm-25.4 -16.93c-3.04,-16.02 10.66,-30.11 5.36,-5.36 -0.13,0.58 0.23,34.92 -5.36,5.36zm347.13 -8.47c0,-21.65 13.41,-1.36 5.03,0 -0.1,0.02 -5.03,23.64 -5.03,0zm-67.73 0c-4.57,-24.68 18.1,2.17 8.64,1.59 -17.24,-1.07 -5.36,16.18 -8.64,-1.59zm-211.67 0c0,-21.65 13.41,-1.36 5.03,0 -0.1,0.02 -5.03,23.64 -5.03,0zm245.53 -16.93c0,-22.99 30.29,0 7.59,0.46 -8.55,0.18 -7.59,18.79 -7.59,-0.46zm-287.86 -8.47c5.46,-5.46 35.96,-6.13 17.45,9.21 -14.32,11.85 -21.89,-4.77 -17.45,-9.21zm76.2 -84.66c9.77,11.24 10.84,8.94 15.11,27.22 3.06,13.14 1.82,26.99 1.82,40.51 44.76,0 12.62,0.06 25.4,8.47l-42.33 0 0 -76.2zm211.66 50.8c9,-9 32.12,13.43 9.44,4.4 -0.2,-0.08 -23.62,9.78 -9.44,-4.4zm-287.86 0c9.81,-9.82 48.26,14.32 10.57,3.44 -1.01,-0.29 -25.27,11.25 -10.57,-3.44zm1244.59 -160.87c20.61,15.1 36.15,45.81 50.81,67.73 17.63,26.36 39.14,46.31 42.33,84.67l-93.14 0 0 -152.4zm-25.4 0l0 152.4 -93.13 0c3.14,-37.73 20.02,-51.51 38.93,-79.6 16.97,-25.23 33.12,-57.35 54.2,-72.8zm-897.46 143.93c0,-21.65 13.41,-1.36 5.03,0 -0.1,0.02 -5.03,23.64 -5.03,0zm-279.4 0c0,-21.65 13.41,-1.36 5.03,0 -0.1,0.02 -5.03,23.64 -5.03,0zm-67.73 0c0,-21.65 13.4,-1.36 5.03,0 -0.1,0.02 -5.03,23.64 -5.03,0zm287.86 8.47c-21.89,2.72 -2.58,-28.62 -0.27,-10.51 0.02,0.14 0.25,2.23 0.26,2.45 0.05,0.74 7.06,7.19 0.01,8.06zm-59.26 -42.33c30.58,8.16 25.4,0.13 25.4,76.2l-42.34 0c10.36,-7.83 -9.51,-5.49 25.4,-8.47 0,-28.18 0.26,-48.21 -8.46,-67.73zm-59.27 8.46c-3.83,-20.75 15.52,-3.46 9.32,1.4 -13.02,10.21 -8.13,5.03 -9.32,-1.4zm135.47 -8.46l25.4 0 0 16.93c-24.76,-5.93 -12.2,1.09 -25.4,-16.93zm-279.4 0l25.4 0 0 16.93c-24.76,-5.93 -12.2,1.09 -25.4,-16.93zm279.4 -33.87c9.91,-14.27 1.21,-16.93 25.4,-16.93l25.4 0 0 33.86 -25.4 0c-23.85,0 -15.68,-3.66 -25.4,-16.93zm-59.27 -16.93l0 25.4 -16.93 0c5.55,-23.21 -3.44,-13.19 16.93,-25.4zm-143.93 0c18.71,13 10.52,1.38 16.93,25.4l-16.93 0 0 -25.4zm-1278.47 8.46c116.98,0 238.3,37.95 315.75,116.06 18,18.16 28.8,35.02 45.8,55.8 32.78,40.1 57.85,98.96 70.68,149.45 7.58,29.82 5.06,69.7 16.51,93.56 -53.84,-14.38 -229.53,-207.72 -281.9,-251.5 -25.76,-21.54 -34.58,-26.5 -58.92,-51.15 -19.25,-19.48 -35.21,-37.9 -55.87,-54.2 -56.37,-44.48 -26.2,-8.83 -52.05,-58.02zm1176.87 0c0,-21.65 13.4,-1.35 5.03,0 -0.1,0.02 -5.03,23.64 -5.03,0zm406.4 -8.46l2.52 2.52c-0.16,-0.16 -3.37,-1.68 -2.52,-2.52zm-465.67 0l2.53 2.52c-0.17,-0.16 -3.37,-1.68 -2.53,-2.52zm465.67 -84.67l118.53 0 0 59.27 -118.53 0 0 -59.27zm-482.6 50.8c0,-22.99 30.29,0 7.59,0.46 -8.55,0.18 -7.59,18.79 -7.59,-0.46zm1363.13 -50.8l76.2 0 0 110.07c-34.45,-23.07 -57.39,-74.26 -76.2,-110.07zm-135.47 118.53l0 -118.53 84.67 0 -84.67 118.53zm-1312.33 -59.26l-8.46 0 0 -135.47 16.93 0c0,58.63 -8.47,85.89 -8.47,135.47zm143.93 -84.67c43.52,0.97 24.32,-7.66 42.34,16.93l-42.34 0 0 -16.93zm423.34 -50.8l118.53 0 0 59.27 -118.53 0 0 -59.27zm956.73 -67.73l0 110.06 -76.2 0c7.44,-27.87 54.93,-95.82 76.2,-110.06zm-211.67 -8.47c20.42,14.96 29.46,36.32 42.71,58.89 13.56,23.08 28,38.81 41.96,59.64l-84.67 0 0 -118.53zm-1210.73 169.33l-42.33 0c0,-93.61 -7.34,-89.7 33.86,-93.13 0.49,1.11 -0.29,2.07 -0.33,3.61l8.8 89.52zm1329.26 -76.2l0 -160.86 67.74 0c54.75,0 3.76,62.69 -6.71,77.93 -17.4,25.33 -39.67,67.29 -61.03,82.93zm-118.53 -160.86l93.13 0 0 160.86c-19.37,-14.19 -34.55,-49.41 -53.17,-73.82 -21.27,-27.89 -38.7,-41.44 -39.96,-87.04zm118.53 -177.8c26.68,19.54 89.59,109.72 93.14,152.4l-93.14 0 0 -152.4zm-25.4 0l0 152.4 -93.13 0c0.97,-43.44 18.62,-52.43 38.75,-79.79 18.82,-25.57 32.1,-56.28 54.38,-72.61zm-1371.59 76.2l-16.94 0c2.72,-32.66 8.47,-33.34 8.47,-76.2l16.93 0c-2.71,32.65 -8.46,33.34 -8.46,76.2zm1413.93 -110.07c103.79,0 76.2,6.8 76.2,118.54 -19.77,-13.24 -29.42,-30.8 -42.51,-50.63 -9.14,-13.87 -10.71,-13.77 -19.77,-31.03 -8.72,-16.62 -8.76,-25.33 -13.92,-36.88zm-135.47 127l0 -127 84.67 0c-14.92,28.19 -22.72,33.67 -39.72,61.88l-44.95 65.12zm144.97 -185.94c0.08,1.37 2.14,1.7 2.39,4.69l-2.39 -4.69zm-85.7 -0.32c10.56,12.15 -3.31,-5.91 11.57,13.82 7.45,9.89 8.31,11.81 13.83,20.04l-25.4 0 0 -33.86zm-59.27 -84.67c30.74,22.52 33.87,65.32 33.87,118.53l-33.87 0 0 -118.53zm-1092.2 110.07c10.03,-27.7 -10.98,-6.15 25.4,-25.4 -6.6,18.24 2.3,5.82 -9.2,16.19 -3.98,3.58 -13.71,5.97 -16.2,9.21zm1286.93 -101.6c1.17,1.83 2.1,2.84 2.4,6.06l9.01 41.8c2.24,14.59 5.53,36.64 5.53,62.2 -40.94,-3.4 -37.8,-20.52 -16.94,-110.06zm-76.2 84.66l0 -42.33 25.4 0c-7.07,26.49 -13.93,26.54 -25.4,42.33zm-50.8 -42.33l25.4 0 0 42.33c-3.53,-4.06 -9.58,-9.46 -15.1,-18.76 -10.62,-17.9 -6.49,-16.32 -10.3,-23.57zm50.8 -93.13c0,-25.6 9.97,-23.41 33.87,-25.4l0 93.13 -33.87 0 0 -67.73zm-25.4 16.93l0 50.8 -33.86 0c6.33,-23.71 16.79,-38.29 33.86,-50.8zm-93.13 -42.33c36.25,9.67 25.4,12.15 25.4,59.26 -22.63,-16.58 -24.34,-21.04 -25.4,-59.26zm186.27 59.26c0,-47.11 -10.85,-49.59 25.4,-59.26 -2.59,31.14 -5.33,45.32 -25.4,59.26zm-127 -8.46l0 -50.8 33.86 0c-6.55,24.54 -19.71,34.51 -33.86,50.8zm127 -143.94c23.3,26.81 25.4,19.7 25.4,67.74l-25.4 0 0 -67.74zm-127 25.4l33.86 0 0 42.34 -33.86 0 0 -42.34zm-33.87 -25.4l0 67.74 -25.4 0c0,-42.4 0.28,-49.34 25.4,-67.74zm93.13 67.74l0 -42.34 33.87 0c-7.62,28.56 -12.13,27.23 -33.87,42.34zm0 -127c18.34,13.43 31.38,29.33 33.87,59.26l-33.87 0 0 -59.26zm-59.26 25.4c0,-34.46 13.37,-45.55 33.86,-59.27l0 93.13 -33.86 0 0 -33.86zm127 -93.14l25.4 0 0 118.54c-35.93,-26.33 -25.4,-59.06 -25.4,-118.54zm-186.27 118.54l0 -118.54 25.4 0c0,54.59 9.83,97.42 -25.4,118.54zm143.93 -59.27l0 0zm0 0l-8.46 -8.47 8.46 8.47zm-8.46 -8.47c-18.22,-12.66 -11.15,-1.24 -16.94,-25.4 18.72,13.01 10.53,1.39 16.94,25.4zm-67.74 -16.93l-8.46 -33.87c16.18,11.69 18.24,10.42 8.46,33.87zm59.27 -33.87l25.4 0 0 33.87c-10.56,-12.15 3.31,5.9 -11.57,-13.83 -7.45,-9.88 -8.32,-11.8 -13.83,-20.04zm25.4 -42.33l0 16.93 -33.87 0c19.13,-26.1 -5.49,-13.58 33.87,-16.93zm-93.13 0c39.32,3.27 14.8,-9.08 33.86,16.93l-33.86 0 0 -16.93zm59.26 -67.73l33.87 0 0 42.33 -33.87 0 0 -42.33zm-25.4 0l0 42.33 -33.86 0c2.87,-34.52 4.35,-34.45 33.86,-42.33zm59.27 -84.67l0 59.27 -33.87 0c2.5,-29.94 15.53,-45.83 33.87,-59.27zm-93.13 59.27l0 -101.6 33.86 0 0 67.73c0,26.5 -15.14,28.33 -33.86,33.87zm59.26 -59.27l0 -42.33 33.87 0c-7.62,28.55 -12.13,27.23 -33.87,42.33zm0 -127c18.34,13.44 31.38,29.33 33.87,59.27l-33.87 0 0 -59.27zm-59.26 -67.73c11.66,8.54 33.86,32.45 33.86,50.8l0 76.2 -33.86 0 0 -127zm59.26 25.4l0 -67.74 33.87 0 0 110.07c-14.44,-9.67 -33.87,-18.42 -33.87,-42.33zm-59.26 -67.74l33.86 0 0 42.34c-7.25,-4.86 -10.71,-4.99 -19.18,-14.68 -21.93,-25.09 -6.67,-12.4 -14.68,-27.66zm59.26 -101.6c0,-18.34 22.21,-42.25 33.87,-50.79l0 126.99 -33.87 0 0 -76.2zm-25.4 16.94l0 59.26 -33.86 0c2.49,-29.93 15.53,-45.83 33.86,-59.26zm-33.86 8.46l0 -118.53 33.86 0 0 67.74c0,22.5 -22.58,37.82 -33.86,50.79zm59.26 -76.19c0.84,-37.56 -2.69,-39.3 33.87,-42.34 -7.62,28.56 -12.13,27.23 -33.87,42.34zm0 -118.54l16.94 0c10.5,39.34 13.33,7.49 16.93,50.8l-33.87 0 0 -50.8zm-59.26 -76.2c20.49,13.73 33.86,24.81 33.86,59.27l0 67.73 -33.86 0 0 -127zm59.26 8.47c21.14,-8.53 4.75,-2.05 18.01,-15.86 9.58,-10 -9.21,0.36 15.86,-18.01l0 93.14c-26.54,-17.78 -32.69,-16.73 -33.87,-59.27zm-50.8 -33.87l2.53 2.53c-0.17,-0.17 -3.37,-1.69 -2.53,-2.53zm-8.46 -16.93l2.52 2.52c-0.16,-0.16 -3.36,-1.68 -2.52,-2.52zm93.13 -110.07l2.53 2.53c-0.17,-0.17 -3.37,-1.69 -2.53,-2.53zm-93.13 -270.93l93.13 0 0 33.87 -59.27 0c-31.94,0 -27.34,-21.46 -33.86,-33.87zm16.93 -42.33l59.27 0 0 8.46 -59.27 0 0 -8.46zm-220.13 3970.85c-1.24,55.76 -25.4,83.48 -25.4,143.93 61.55,41.22 100.84,33.5 193.58,24.25 52.21,-5.2 146.93,-30.22 187.42,-49.65l0 -338.66 1066.79 0 0 -211.67c-61.17,0 -759.34,9.44 -813.19,-0.16 -31.62,-5.64 -20.22,-11.75 -17.96,-41.64 4.7,-62.19 12.13,-256.91 -7.04,-296.86l152.4 0 -8.47 -211.67c-201.58,0 -203.2,-44.54 -203.2,67.73 -49.49,-1.1 -97.71,-38.38 -110.07,-84.66 44.69,-21.44 220.02,-8.47 287.87,-8.47 0,-96.36 -8.47,-175.33 -8.47,-279.4l-287.86 0 0 177.8 -25.4 0 0 -1752.59 -50.8 0c0,-119.56 -15.35,-684.1 12.76,-774.64 22.91,-73.79 12.64,-176.03 12.64,-258.29 -39.3,-4.3 -25.4,-7.76 -25.4,-59.27 -15.45,-7.66 -10.59,-6.53 -33.87,-8.47l0 -25.4c18.85,-7.6 28.07,-16.47 24.61,-75.13 -0.23,-3.96 -6.7,-36.76 -8.55,-42.42 -0.68,-2.09 -1.45,-4.3 -2.2,-6.32 -0.74,-1.97 -1.66,-4.17 -2.45,-6.05l-11.41 -22.48c-34.46,23.08 -32.88,6.67 -33.87,50.8l-25.4 0c-0.89,-40.12 0.01,-34.44 -33.86,-42.33 -25.94,24.6 -32.19,78.29 -21.58,114.48 11.11,37.9 -4.8,18.81 21.58,29.45l0 25.4c-26.22,2.24 -16.01,-0.1 -33.87,8.47 0,51.51 13.9,54.97 -25.4,59.27l0 237.06c26,8.62 14.83,15.61 22.06,62.21 14.48,93.23 3.34,626.34 3.34,733.66l-50.8 0 0 1752.59 -25.4 0 0 -177.8 -228.6 0c-1.1,-49.36 -79.58,-113.04 -116.05,-146.41 -44.63,-40.86 -182.3,-22.92 -248.01,-22.92l0 448.73c95.79,0 536.81,-14.27 584.19,8.47 -7.13,26.73 -19.99,33.86 -39.84,53.29 -22.98,22.5 -28.17,30.44 -70.22,31.37 0,-112.27 -1.63,-67.73 -203.2,-67.73 0,36.73 -0.1,73.46 0.11,110.18 0.29,49.06 -5.57,65.32 -8.58,101.49l152.4 0 0 338.66 -541.86 0c0,-36.95 -8.03,-138.3 -6.63,-151.84 4.97,-48.27 16.12,1.69 9.5,-61.57l-2.87 -1073.52c72.59,-38.41 51.96,-59.26 169.33,-59.26 0,-33.88 -0.31,-67.9 0.15,-101.76 0.66,-47.58 12.36,-76.79 -25.43,-84.62 -75.01,-15.55 -146.01,12.28 -203.32,17.04 -39.43,-28.88 -2.98,-42.33 -76.2,-42.33l0 186.27c-50.03,0 -88.8,5.5 -126.48,-25.92 -23.61,-19.68 -16.33,8.79 -17.45,-41.82l-50.8 0c17.94,-24.48 6.89,-16.93 50.8,-16.93l0 -101.6c-22.86,1.9 -23.03,3.97 -42.34,8.47l0 -16.94c44.55,-10.37 55.6,1.82 59.27,-42.33 -38.77,-9.03 -20.5,-9.03 -59.27,0l0 -245.53c65.94,-17.61 111.81,-145.87 110.14,33.79 -0.72,78.25 -12.26,193.26 -0.07,245.61l16.93 0c12.56,-53.9 0,-241.97 0,-330.2l67.74 0c4.49,-19.3 6.56,-19.47 8.46,-42.33 -51.6,-24.76 -74.1,20.89 -77.27,-49.73l0.8 -670.22c1.41,-47.28 14.14,-69.38 7.56,-125.43 -21.94,-186.91 15.18,-1131.33 -7.29,-1178.15 -44.38,11.85 -17.67,35.14 -16.62,92.76 0.76,41.92 -0.31,85.27 -0.31,127.37l-2.42 1018.2c12.8,89.75 5.13,642.44 -6.05,776.73 -23.76,0 -52.58,1.46 -75.75,-0.44 -32.72,-2.69 -28.84,-8.03 -68.18,-8.03 0,75.9 10.94,234.18 -3.61,301.78 -5.84,27.1 3.24,36 -6.75,54.5 -1.44,2.66 -11.52,11.45 -15.04,16.25l6.93 10.01c0.94,1.47 5.44,8.22 6.67,10.26 12.9,21.48 0.79,-8.34 11.8,22.07 -54.58,-1.22 -23.52,3.76 -33.83,-16.97 -0.49,-0.99 -8.45,-50.18 -8.5,-50.77l-33.87 0 0 84.67 -33.87 0c0,-85.65 65.33,-649.07 77.59,-769.09l161.88 -1633.04c5.36,-42.89 9.4,-119.21 19.33,-166.93 17.29,-83.06 58.5,-106.4 -47.13,-106.4 0,117.74 -5.07,199.11 -15.5,297.77l-152.24 1456.43c-6.98,56.99 -7.77,118 -25.02,170.33 -8.44,25.61 0.1,39.98 -1.63,90.2 -2.4,69.86 -23.84,141.64 -25.29,212.45 -0.97,47.21 10.58,49.09 -25.85,58.82 11.14,41.71 16.93,6.77 16.93,67.73 -42.94,-11.47 -30.04,-71.66 -84.66,-76.2 8.99,17 7.25,15.24 19.64,31.15 17.26,22.17 14.22,4.87 22.69,36.58 -57.09,-4.75 -46.47,-64.7 -110.07,8.47 7.76,33.29 9.32,34.36 33.87,50.8 -37.07,70.05 -4.68,36.85 0,93.13 118.98,0 45.98,-3.84 101.6,-8.47 0,59 -16.94,121.99 -16.94,186.27 -34.4,0 -27.26,-2.83 -50.79,8.47l0 177.8 25.4 0 -56.35 587.12c-6.61,50.37 6.71,41.35 -28.32,64.81 32.54,48.59 5.51,181.98 -2.55,242.98 -4.8,36.35 -21.58,236.25 -31.32,256.55 -14.26,35.33 -27.26,-1.35 -38.99,38.13l-2.62 30.24c-1.58,35.8 14.37,112.74 -19.06,124.96 -39.83,14.55 -260.04,5.61 -286.46,-7.06 -20.82,-20.82 -1.34,-73.4 1.58,-83.73 12.71,-45.04 -10.05,-8.58 -10.05,-77.14 53.14,0 76.17,8.47 118.54,8.47l-9.74 -278.22c-6.2,-113.76 54.56,-94.32 -269.66,-94.32l0 -101.6 270.93 0 0 -160.86c-1.67,-0.88 -31.61,-18.24 -31.98,-18.35l-30.22 6.52c-1.16,0.58 -3.5,2.63 -5.53,3.36 -1.78,-79.58 -44.59,-14.57 -64.34,-88.07 -5.82,-21.67 -3.09,-47.63 -5.67,-70.53 -0.51,-4.55 -3.53,-26.54 -5.43,-36.9l-9.23 -33.1c10,-26.79 -18.38,-12.14 25.4,-16.93l0 -33.87c-79.95,0 -41.76,-61.74 -129.74,-150.05 -36.08,-36.22 -18.25,-21.37 -14.19,-70.08 -29.26,-6.2 -25.03,-16.16 -33.87,16.93 -32.39,-21.69 -65.83,-47.49 -104.22,-65.1 -105.03,-48.19 -54.46,-16.95 -75.8,-51.21 -8.45,-13.59 -11.7,-17.49 -31.65,-19.15 -2.23,26.21 0.11,16 -8.46,33.86 -47.66,-11.1 -85.53,-8.46 -143.94,-8.46 -11.39,42.68 -22.46,16.58 -33.86,59.26 22.03,32.9 336.22,314.94 383.11,361.95 23.98,24.03 39.86,41.78 65.62,61.38 23.43,17.83 50.58,35.2 59.27,67.74 -41.8,0.93 -41.41,0.54 -42.34,42.33l-25.4 0c-5.83,-22 3.14,-9.44 -16.93,-16.93 -19.77,26.98 -14.1,6.89 -33.87,33.87 14.36,53.75 17.51,41.85 17,110l-0.06 389.53 -25.4 0 0 50.8c24.75,5.92 12.19,-1.09 25.4,16.93 -25.51,6.81 -18.59,-0.11 -25.4,25.4 22.41,9.05 15.79,-17.41 16.93,33.87 43.62,0 78.96,-8.47 135.47,-8.47 0,41.72 -9.84,40.64 -6.54,74.19 1.85,18.81 12.79,43.11 15,69.74 -18.71,13.01 -10.52,1.39 -16.93,25.4l-880.53 0 0 211.67 1066.8 0c0,98.74 0.55,197.64 -0.03,296.36 -0.72,120.76 -7.26,117.55 174.37,81.18 96.52,-19.33 141.18,-39.37 210.27,-86.06 42.32,-28.59 48.25,-29.76 47.62,-96.32 -0.49,-50.92 1.98,-102.67 -1.85,-153.36 -2.13,-28.19 -12.05,-32.96 11.25,-40.35 35.34,-11.23 185.18,-1.37 227.79,-1.89 88.7,-1.1 58.72,-15.57 58.71,220.57 -0.01,148.91 -27.8,183.32 107.37,115.84 44.87,-22.4 55.79,-30.64 93.42,-58.98 29.83,-22.47 58.49,-46.18 87.07,-65.32 -15.51,66.58 -33.86,72.28 -33.86,160.86 148.48,34.59 32.03,16.93 177.8,16.93l0 -389.46 304.79 0 0 262.46c44.15,-11.78 23.59,-30.54 67.74,-42.33z"/>
   <path class="fil0" d="M3386.67 5215.47c-55.55,14.84 -79.67,79.75 -292.4,114 -86.63,13.95 -252.12,33.73 -234.29,-82.51 7.63,-49.75 4.54,-39.5 -22.06,-22.67 -127.6,80.73 -275.24,132.82 -432.27,109.01 -101.87,-15.45 -69.7,-87.76 -68.84,-126.3 -73.95,39.13 -145.02,78.15 -233.92,104.75 -75.25,22.51 -210.28,45.24 -282.54,-3.15 0.85,-38.45 12,-59.34 25.4,-84.66 -114.54,9.53 -144.32,190.36 76.15,195.36 118.14,2.67 260.42,-51.84 355.64,-102.23 4.21,50.52 40.69,72.62 89.72,88.08 108.24,34.13 269.87,-8.73 367.8,-53.89 10.29,-4.75 14.75,-7.29 28.87,-13.47 32.32,-14.13 -7.42,-8.43 38.55,-12.25 41.88,156.85 348.3,73.99 464.69,24.43 22.09,-9.41 38.67,-21.49 60.24,-32.9 42.07,180.61 409.5,77.3 524.93,0 21.41,91.89 147.31,113.01 255.39,94.53 96.29,-16.47 203.68,-50.43 269.54,-94.53 40.78,175.05 400.91,83.05 524.93,0 14.48,30.17 15.66,60.69 90.6,87.21 49.96,17.68 113.1,16.15 164.79,7.32 99.53,-17.02 201.02,-48.64 269.55,-94.53 42.52,80.36 82.75,103.86 233.49,81.09 87.6,-13.23 115.26,14.58 266.2,-63.99 35.5,-18.48 107.95,-62.72 118.37,-101.77 -85.71,19.97 -70.16,59.81 -310.61,95.8 -56.6,8.47 -124.26,13.21 -179.24,4.99 -101.07,-15.1 -61.24,-92.33 -60.48,-126.19 -96.29,64.48 -146.41,95.88 -286.53,119.87 -58.33,9.99 -121.89,14.69 -177.93,6.32 -81.25,-12.14 -66.57,-52.87 -60.47,-126.19 -140.29,93.95 -271.61,150.9 -464.52,126.25 -93.07,-11.89 -61.94,-57.98 -60.42,-126.25 -152.34,102.02 -209.45,121.09 -401.61,129.37 -12.35,0.53 -44.16,0.4 -70.49,-4.17 -38.09,-6.6 -35,-14.46 -61.29,-32.06l5.64 -93.37c-39.12,23.38 -69.54,52.27 -124.12,76.5 -79.25,35.18 -357.83,97.07 -402.8,12.63 -16.11,-30.27 -4.42,-45.94 -3.66,-80.43z"/>
   <polygon class="fil0" points="3386.67,5215.47 3395.14,5215.47 3388.09,5205.59 "/>
  </g>
  <g id="_105553364484128">
   <path class="fil1" d="M2873.53 6637.93c-76.57,-49.9 -252.62,-119.74 -405.24,-220.38 -130.42,-86.01 -253.34,-172.41 -360.79,-266.03 -209.28,-182.35 -415.77,-405.69 -584.41,-668.29 -556.54,-866.61 -682.98,-1983.51 -205.92,-2983.2 148.4,-310.97 324.63,-538.61 514.53,-747.46 53.47,-58.8 100.89,-100.84 161.36,-151.99 465.08,-393.31 831.01,-587.5 1495.73,-705.39l26.52 -136.11c-521.51,43.5 -1032.87,280.52 -1429.2,562.25 -66.83,47.51 -121.86,96.34 -183.92,146.24 -286.94,230.73 -557.99,597.87 -727.5,923.52 -527.64,1013.68 -402.08,2217.28 198.1,3098.2 261.54,383.89 628.66,720.26 1036.39,944.72 94.4,51.98 355.26,184.46 464.35,203.92z"/>
   <path class="fil1" d="M3725.33 869.41c916.3,-33.7 1540.54,224.88 2149.03,711.28 99.3,79.38 307.79,291.08 380.62,381.1 139.05,171.9 258.87,337.52 365.3,540.5l102.28 198.58c-79.46,-267.65 -298.05,-607.72 -440.74,-791.16 -593.66,-763.19 -1481.92,-1201.43 -2555.33,-1170.78l-1.16 130.48z"/>
  </g>
  <path class="fil2" d="M4957.64 1154.64c44.11,8.25 243.4,119.99 293.13,148.17 265.15,150.31 553.73,387.03 742.14,607.82 254.74,298.5 493.94,678.17 626.69,1164.4 138.98,509.06 141.08,1067.86 -9.74,1577.13 -413.11,1394.99 -1833.85,2261 -3316.46,1893.45 -505.2,-125.25 -873.76,-355.72 -1185.54,-614.83 -162.26,-134.84 -299.12,-285.92 -435.52,-464.35 -193.57,-253.22 -293.11,-496.04 -336.13,-553.89 13.79,76.06 104.89,253.16 143.24,323.49 377.42,692.04 1030.19,1230.44 1837.55,1429.12 533.88,131.39 1142.45,105.3 1636.19,-70.5 228.51,-81.37 450.37,-185.56 629.64,-306.28 559.21,-376.55 987.62,-897.13 1195.97,-1603.79 368.43,-1249.64 -158.07,-2558.43 -1200.88,-3231.92 -113.5,-73.3 -478.22,-277.86 -620.28,-298.02z"/>
 </g>
</svg>
