<svg id="Layer_1" data-name="Layer 1" xmlns="http://www.w3.org/2000/svg" viewBox="0 0 109.12 124.88"><defs><style>.cls-1{fill:#2e3192;fill-rule:evenodd;}</style></defs><path class="cls-1" d="M298.8,312.54c.05,0,.18-.07.06,0s-.14-.05-.06,0Zm1.8,72.24h-.82v-.15c.39,0,.23-.06.41-.12.54-.19.47.45.47-1.2-.12-.08-.05-.06-.2-.1v-.39h.84c0,.12,0,.13,0,.19l0,3.78c-.14,0-.2,0-.2.14v4.31h-.54v-2.11a.24.24,0,0,0,.17-.23v-2.09h0a.13.13,0,0,0,.13-.13v-1.22h0c.19,0,.18,0,.17-.42v-.11c0-.24-.31-.17-.5-.15Zm-1.8,0h-1.13l-.09,0c-.16,0-.12.16-.11.45v0a.53.53,0,0,1,0,.13l.11,0h.08v1.21a.13.13,0,0,0,.13.13h0v2.09a.25.25,0,0,0,.16.23l0,.89v1.22h-.54v-4.06c0-.31.06-.37-.2-.39v-4a3.41,3.41,0,0,1,.46,0l0,1.41.09.11,0,0,0,0c.15.13.27.09.55.09.05.21.07.14.34.14v.15Zm1,4.36h-.2v1.91c0,.2-.16.19.2.19v-2.1Zm-.88,0h-.2v2.1h.2v-2.1Zm-2.89-12.8h.79v0a.22.22,0,0,1,.22-.22h0a.22.22,0,0,1,.21.22v2.35h-1.22v.54c1,0,1.16-.13,1.18.23,0,.94-.1.17-.25.84-.41,0-.29-.08-.44.05h.53c.21-.42.29-.42.49,0,.73,0,.64-.13.64.59H299a7,7,0,0,1,1.53,0c.13.06,0,.05.24.06H301V376.6c0-.49-.1-.39,1.08-.39.1.19.2.39.29.59a2.66,2.66,0,0,1,.3.58h.78c.1-.18.13-.32.39-.34.7-.07.53.08.54.54a1.49,1.49,0,0,0,.06.34v2c0,.8-.12,1.15.2,1.18V377c.06-.18.21-.11.67-.11h3.14c.2,0,.19,0,.2.24s0,.28,0,.4v3.19c0,.28.05.4.05.73h-1.17c-.55,0-.69-.08-1,.16a13.65,13.65,0,0,0-1.39.87h.05l-.05,0v0l-.05.19c-.1.3-.27.07-.53.16s-.11.4-.11.82V401h0v1.38h0v.28a.29.29,0,0,1,0,.09v7.95h0c.39,0,.39.69-.29.59v1.27c.2,0,.16,0,.29.05v3.88h-.63v-.36h-.1v.36h-.3v-.11H302v.11H296.4v-.36h-1.23c0,.15,0,.23-.16.33l-.05,0h-7.33a8.58,8.58,0,0,1-1.22-.06c0-.2,0-.14.24-.15V416c-.19,0-.11,0-.24-.05v-3.87c.13-.07.09-.05.29-.05a.44.44,0,0,1-.05-.29c-.13,0-.19,0-.24-.15.15-.08.22-.05.44-.05,0-.17.13-.4.34-.32s-.05.31.39.32c0-.48.27-2.77.33-3.25.14-1.09.18-2.15.33-3.24s.24-2.16.33-3.25c0-.26.07-.56.09-.84l.16-1.61c0-.21.09-.56.09-.79a2.11,2.11,0,0,1-.44-.24V398c.17-.09.36-.15.53-.24,0-.95.22-2.13.3-3.13l.33-3.11c0-.34.08-.71.1-1,.18-2.16.45-4.95.73-7.12.07-.59.08-1.38.21-1.94h-.78c0-.51,0-.72,0-1.32v-1.47c0-2.13-.33-1.77,1.18-1.77l.26-2.48a22.26,22.26,0,0,0,.23-2.46c-.25,0-.46-.05-.78-.05,0,.54-.08.44-.92.33l-.62-.07c-.34,0-.3,0-.33-.31s-.34-.44-.36-.94c0-.71.64-.8.18-1.13a1.05,1.05,0,0,1,0-1.74,1,1,0,0,1,1.19,0c.49.32.2.47,1,.47,0-.36.09-.29-.11-.52l-.51-.62c-.26-.33-.51-.48-.31-.72.28,0,.52.47.7.67l.57.75c.14.31-.4.63.57.57.18,0,.1,0,.12-.17l.1-.89a3.18,3.18,0,0,1-.44-.24V367c.2-.13.47-.13.53-.4l.21-2.14c.06-.72.19-1.53.24-2.26,0-.45.4-3.2.32-3.4-.15-.39-.46-.22-.32-.81a1.36,1.36,0,0,1,.44-.05s0-.2,0-.21v-.06a0,0,0,0,1,0,0l.16-1.53c0-.24-.06-.49,0-.63a3,3,0,0,1,.19-.88,11.39,11.39,0,0,0,.33-2.37c.2-1.45.5-4.69.62-6.09,0-.23.06-.56.09-.79s0-.49.07-.76l.63-6.23a.45.45,0,0,0,0-.16c.1-.94.4-3.46.4-4.16h-.06l.06,0V334c.1-.17.06-1.23.22-1.59a9.35,9.35,0,0,0,.21-1.55l.32-3.21c.2-1.42.3-3.42.49-4.8l.75-7.4c0-.26,0-.15.05-.32l.32-3.21a1,1,0,0,0,0-.3,3.68,3.68,0,0,1,0-.39c0-.2.12-.56,0-.74a.56.56,0,0,1-.11-.31,1.94,1.94,0,0,1,0-.42c0-.7-.08-.77.15-1a3.35,3.35,0,0,1,1.47.24,1.33,1.33,0,0,1-.07.47c0,.18-.05.29-.09.46s-.07.26-.11.43,0,.24-.22.26a5.87,5.87,0,0,1-.07.86l-.51,4.36a1.4,1.4,0,0,0-.06.36c-.08,1.33-.4,3.22-.43,4.43,0,.09-.3,2.2-.29,2.75l-.13,1.14c-.23,1.84-.37,3.82-.58,5.68,0,.4-.25,2.05-.2,2.27s0,0,0,.16l-.17,1.59a3.85,3.85,0,0,1,0,.4l-.9,8.85c-.2,1.53-.3,3.3-.49,4.8l-.18,1.63c0,.29,0,.53-.07.81s0,.21-.05.54a29,29,0,0,0-.28,3.42c.1.55,0,.35,0,.88,0,.37-.11.07-.14.47L294,360a3.62,3.62,0,0,0-.06.71H294l-.06,0v-.05a1.81,1.81,0,0,0-.08.51c-.3,2.45-.45,5.23-.78,7.59l-.41,4.1c0,.95-.39,3.23-.39,4a6.85,6.85,0,0,1,1,0v-1.17c0-.76-.1-1,.19-1,.78-.08.6-.07.6,1.77h1.27c0-.56-.11-.35-.18-1.14h-.11v.38h.1a.22.22,0,1,1-.43,0h.09v-.38a.2.2,0,0,1-.16-.2h0a.21.21,0,0,1,.2-.21h.28c0-.38,0-.92,0-1.68h.24c0-1.26,0-2.52,0-3.77,0-.35,0-.22-.08-.41-.09-.35.1-2.88-.07-3.22a1.12,1.12,0,0,1,.89,0c.06.13,0,.09,0,.29H299a11.64,11.64,0,0,1,0-1.57V346.77c0-.59-.05-1-.05-1.56s.05-1,.05-1.57V316.16c0-.88-.29-1.28.24-1.28s.3.15.29.55-.05.44-.05.78v28a15.14,15.14,0,0,1,0,2.52v19.39c.45,0,1,0,1.47,0s.29.58.26.7c-.12.49,0,.33-1.73.33v6.46c0,.86.18,1.4-.09,1.91-.21,0-.2,0-.35,0v.06l0-.06h0a1.85,1.85,0,0,1-.08-1c.07-.53,0-6.68,0-7.36-.14,0-.08,0-.19-.1v.06l0-.06h.05v-.2c-.42,0-.42.08-.67.27s-.34.27-.51.42h.06l-.06,0v0c-.43.29-.8.65-1.24,1-.14.1-.24.12-.27.31-.06,3.6-.09,5-.1,6.13h.34a.16.16,0,0,1,.17-.14h.9a.17.17,0,0,1,.18.17v.35a.18.18,0,0,1-.18.18h-.9l-.07,0v.25h.09a.21.21,0,1,1-.42,0h.09v-.38h-.2v1Zm-2.31,32.83v0a.15.15,0,0,1,.15-.15h.34V402.9h0v0h0v-.05a.18.18,0,0,1-.1-.16V401h0c0-4.61,0-18.14,0-18.16-.87,0-.56,0-.66-.28s-.37-.3-.53-.4c-.4-.24-.75-.47-1.16-.69l-.69,6.8c-.05.61-.16,1.16-.2,1.87-.05.91-.3,2.65-.38,3.67-.1,1.19-.74,6.72-.74,7.49h0l0,0v-.05l-.15,1.32c-.1,1.11-.32,2.72-.39,3.78l-.54,5.14h5.53v-1.08h-.34a.15.15,0,0,1-.15-.14v-.88l-.23-.09h0a.16.16,0,0,1,.16-.16Zm6.69-10.68a.13.13,0,0,1,.14.13v.05a.14.14,0,0,1-.14.14h-.17V399h.17a.13.13,0,0,1,.14.13v.05a.14.14,0,0,1-.14.14h-.17v.14h.17a.14.14,0,0,1,.14.14h2.68v-1.33h0l0-5.38c0,.23.07.49-.15.49-.62,0-.54.08-.54-.49h-2v4.26c0,.27.06.2,0,.46a3.7,3.7,0,0,0,0,.47c-.14.07.09.05-.29.05v.39Zm-2.13,0v-.39c-.2,0-.18,0-.29-.05s0-.33,0-.51a3.31,3.31,0,0,1,0-.42v-4.26h-2c0,.35,0,.49-.15.49-.64,0-.54,0-.54-.49l-.05,6.71H298a.14.14,0,0,1,.14-.14h.2v-.14h-.2a.14.14,0,0,1-.14-.14v-.05a.13.13,0,0,1,.14-.13h.2v-.15h-.2a.14.14,0,0,1-.14-.14v-.05a.13.13,0,0,1,.14-.13Zm2.27,2.7v0a.13.13,0,0,1-.14.13h-.15v.15h.15a.14.14,0,0,1,.14.14v.05a.13.13,0,0,1-.14.13h-.15V402h.15a.14.14,0,0,1,.14.14v0a.14.14,0,0,1-.14.14h-.15v.88l.19,0c.07,0-.06.14-.14.14h-2.13c-.07,0-.21-.12-.14-.14l.24,0v-.88h-.2a.14.14,0,0,1-.14-.14v0a.14.14,0,0,1,.14-.14h.2v-.15h-.2a.13.13,0,0,1-.14-.13v-.05a.14.14,0,0,1,.14-.14h.2v-.15h-.2a.13.13,0,0,1-.14-.13v0h-2.56v1.46a.16.16,0,0,1-.11.16v2.88h8.05l-.06-2.87a.18.18,0,0,1-.14-.17v-1.46Zm-11.72,14.3a2.58,2.58,0,0,0-.18-.46l-.1-.2-.11-.18-.12.28c-.31.61,0,.16,0,.7H289a.48.48,0,0,0-.09-.14v.05l0-.05Zm7.64-79.69h.05l0-.05v.15l.05,0h-.05v-.05Zm8.67,43.05h0s0,0,0,0ZM296,330.27v0s0,0,0,0Zm-.3,13,0,0,0,0Zm-2.05,8.22h0Zm1.22.79,0,0,0,0Zm-.63,7.34h0Zm1-23.31h0Zm-2.4,21.5h0Zm.35-2h0Zm.05-.78h0s0,0,0,0Zm-.79,3.53,0,0,0,0Zm.79-3.43v0s0,0,0,0Zm1.47-.54v0s0,0,0,0Zm-1.87,3,0,0,0,0ZM299,311.32v0s0,0,0,0Zm-.05.34v0s0,0,0,0Zm0,.24h0Zm.34-1.37h0Zm-.39,1.81h0s0,0,0,0Zm-.34,3.14v0s0,0,0,0Zm1.12.49,0,0a0,0,0,0,0,0,0ZM298,319.89v0s0,0,0,0Zm.93-7.15v0s0,0,0,0Zm-7.3,54v0s0,0,0,0Zm-2,22.77h0Zm4.41,3.18h0s0,0,0,0Zm1.71.84,0,0,0,0Zm-5.29-26.6h0Zm2.89.05h0Zm5,.15v0s0,0,0,0Zm-7.3.39h0Zm-2.2.39h0Zm8.42.15h0Zm-7.84,37.56h0Zm1.08-37.51,0,0,0,0Zm.88,0,0,0,0,0Zm-3.13.24h0Zm8.67.05h0Zm-7.54,37.81h0Zm3.86-37.76h0Zm3.58.1v0ZM293,370.67h0Zm0,.1h0Zm-6.66,40.85v0Zm16.55-34.33,0,0s0,0,0,0Zm-5.53,2.3v0s0,0,0,0Zm2.11.78h0Zm-1.08.1v0s0,0,0,0Zm-.05.34h0Zm-4.9.83h0Zm13.32.1h0Zm-19,26.89Zm3.28-41.53Zm12.59,46.08v2.7h.1v-2.7ZM293.12,413c-.19,0-.32.49-.39.64l-.62,1.33c-.12.24-.2.46-.31.67h1.86V413Zm8.91,2.4c-.2,0-.12,0-.1.14.09.47-.06.35,1.42.35v-.49Zm-2.4-.49c0,.22.09,0,0,.2a2.83,2.83,0,0,1,.47,0,2.72,2.72,0,0,1,.46.06.49.49,0,0,0,.15-.34v-1.67h-1.08v1.72Zm-1.81-.15c0,.57.4.35,1.13.35v-1.92h-1.13v1.57Zm3.38.35c.34,0,.11-.25.39-.25s.32,0,.39.25h1.37v-.74h-1.76a6.07,6.07,0,0,1-.39.74Zm-4.95.78c.23,0,.18-.49.15-.6-.13-.56.62-.63.64,0a1.37,1.37,0,0,1,.44-.05l-1-1.59c-.35-.6-.06-.47-1.69-.47v2.6c.24,0,.18.1.39.1Zm6.08-2.55c-.15,0-.13.06-.19.16l-.3.58h1.51v-.74Zm-1.18.74c.14,0,.23-.24.3-.34a4.23,4.23,0,0,1,.24-.4H301v.74Zm-4.31-.89a6.88,6.88,0,0,0,.69,1.18v-1.18Zm-8.18-1a3.65,3.65,0,0,0-.06,1.09c0,.1.12.3.17.41s.13.24.2.39c.13.31.24.55.38.85.37.84.28.73.68.73v-3.47Zm4.85,0c-.17,0-.32.45-.39.58h.54v-.58Zm-6.32,3.47c0-.25.12-.24.16-.42s-.23-.31-.09-.78l.18-1.49c0-.4.16-.78-.35-.78l.1,3.47Zm7.15-3.47v.39h.15v-.39ZM291,415.63c.18,0,.2-.24.28-.4.23-.49,1.37-2.84,1.39-3.07h-1.91v3.47Zm8.18-17.38v.19h.3v-.34h-.15c-.11,0-.15,0-.15.15Zm.49-3.28v2.35h.2V395c-.14.06-.06.06-.2,0Zm-.83.24.15-.1V395h-.2v2.35h.2v-2.06c-.05-.14.08-.1-.15-.05Zm3.57-4.41.09-.11c.34-.35.57,0,.65.11v-2.69h-.74v2.69Zm-6.9,0,0,0,0-.06c.27-.31.42-.13.67,0v-2.64h-.73v2.69Zm2.35-6.61s0,0,0,0h0v0Zm1.47-.93c.21,0,0-.08.19,0v-.44H299v.44Zm5.14-.73v.14h.15v-.14Zm0-1v.78h.2v-.78c0-.14,0-.09-.1-.15s-.1,0-.1.15Zm-2-.1v.88h1.47v-.88Zm-.68,0v.88H302v-.88Zm-4.51,0v.83h.49v-.83Zm-.73,0v.83h.24v-.83Zm2.44,0v.78H299v-.78Zm2,.34c0-.11,0-.15.15-.15h.15v-.19h-.74v.88H301v-.54Zm4.07.1.65-.37.08-.07h-.73v.44Zm-10.19.05a3.8,3.8,0,0,1,.25-.49h-.49v.83h.24v-.34Zm-.73-.2,0-.29c-.23.06-.15.11-.15.88h.2v-.59Zm-1.38-.29.08.07.28.16a1,1,0,0,0,.38.21v-.44Zm-.09-1.13V381h.63a1.91,1.91,0,0,0-.05-.69Zm12.34.54c0,.11,0,.15.15.15h3.08v-1.77H305v1.62Zm-5.24-.1v.15h.1v-.15Zm-1.08,0v.15h.1v-.15Zm6.32-3.47V379h3.23v-1.66Zm-10.87,1.37a2.21,2.21,0,0,1,0,.54h1.22v-.54ZM290.72,381c0-.76.34-2.95.34-3.72h-.73V381Zm2.54-3.23c0-.22.05-.23.05-.49h-1.07a16.31,16.31,0,0,0-.1,2.93c.06-.1.06-.27.19-.35s0,0,.17,0h.76v-1.56H293c-.18,0-.46-.49.24-.49ZM290,371.85v.1a1.15,1.15,0,0,1,.54.05c-.09-.26-.25-.09-.54-.15Zm1.33-2.69v.17s-.06.16-.08.25l-.18,1.73c.25,0,.4,0,.54.05,0-.21.2-2.07.24-2.16-.21,0-.26,0-.53,0Zm5.53-1.82a0,0,0,0,0,0,0v0Zm-.69.49a9.49,9.49,0,0,0,.79-.63,2.6,2.6,0,0,0,.44-.35h-1.23v1ZM298.6,406v.84h.54V406Zm-1.91,0v.84h1.42V406Zm2.75,0v.84h3.82V406Zm-4.14,0v.84h.9V406Zm3.84-3.62V403a.15.15,0,0,0,.15.15h0a.15.15,0,0,0,.15-.15v-.64Zm-4.9-24.84a.09.09,0,0,0-.09.09h0a.1.1,0,0,0,.09.1h1a.1.1,0,0,0,.09-.1h0a.09.09,0,0,0-.09-.09Zm.39,7.55v1.2l.6-.6-.6-.6Zm2.16,0-.6.6.6.6v-1.2Zm-1.63-.19.6.6.6-.6Zm0,1.58h1.2l-.6-.6-.6.6Zm-.53-3.45v1.2l.6-.6-.6-.6Zm2.16,0-.6.6.6.6V383Zm-1.63-.19.6.6.6-.6Zm0,1.58h1.2l-.6-.6-.6.6Zm6.63.67v1.2l.6-.6-.6-.6Zm2.15,0-.6.6.6.6v-1.2Zm-1.62-.19.6.6.59-.6Zm0,1.58h1.19l-.59-.6-.6.6Zm-.53-3.45v1.2l.6-.6-.6-.6Zm2.15,0-.6.6.6.6V383Zm-1.62-.19.6.6.59-.6Zm0,1.58h1.19l-.59-.6Z" transform="translate(-251.01 -308.77)"/><path class="cls-1" d="M274.3,409.08s0,0,0,0l0,0c-.06,0,0,0-.08,0s0-.28,0-.44h.06v.17c0,.08,0,.06,0,.11v0h0s0,0,0,0,0,0,0,.05Zm1.09-3.2H280v4.46h-4.64v-4.46Zm.31.29v3.88h1.78v-3.88Zm2.24,0v3.88h1.79v-3.88Zm1.1-9a1.08,1.08,0,1,1-1.08,1.08,1.08,1.08,0,0,1,1.08-1.08Zm-2.45-.08a.9.9,0,1,1-.9.9.9.9,0,0,1,.9-.9Zm-2.18,9.43v.17h-.07v.12h.1a.21.21,0,0,0,0,.08.25.25,0,0,1,0,.09v1c0,.07,0,.05,0,.09a2.39,2.39,0,0,1-.22.23c0-.81,0-1.58,0-2.37a.18.18,0,0,0,.15,0V406c-.16,0-.1.06-.09.3s0,.22.14.22Zm-.12-1.07h.15v.4h-.15v-.4Zm0-.84h.08c0,.17,0,.17-.15.17v.47c0,.06,0,.05.1.05v.06c-.09,0-.08,0-.15,0v-1.16s0-.06.06-.09l-.15-.16,2-1.78h-1.66v1.19c0,.05-.14.14-.22.23,0-.18,0-.29,0-.47v-.94h-.05v-.41H281c0-.14,0-.27,0-.37s0-.29,0-.47,0-.56,0-.94h-6.87v-.41H281v0h0c0-.09,0-.12,0-.21v-.26c0-.32,0-.6,0-.94s0-.64,0-1c0-.16,0-.29,0-.47v-1.19c0-.09,0-.13,0-.24h-.38s0-.07-.08-.11-.17-.29-.27-.3c-.32,0-.34.2-.32.43h-.64c0-.09,0-.15,0-.26v-.8c-.15,0-.24,0-.38,0h-.4a5.16,5.16,0,0,0-.35-.51l-.08-.12-.27-.39c-.21-.31-.15-.16-.15-.72,0-.18,0-.47,0-.64s0-.1,0-.19a.92.92,0,0,1-.06-.36l-.23-1.51c-.06-.29-.14-.57-.23-.86a1,1,0,0,1,0-.18.77.77,0,0,1,.1.28l.59-.17.21-.05c0-.11-.16-.57-.19-.7a.73.73,0,0,0-.2.05l-.6.17c0,.1.06.1,0,.12,0-.13-.1-.26-.14-.38a7.07,7.07,0,0,0-.48-1.09,4.94,4.94,0,0,0-.36-.68c-.13-.22-.26-.45-.4-.66l-.11-.15-.33-.46a8.48,8.48,0,0,0-.58-.71l-.13-.14a.3.3,0,0,0,0-.07l-.06-.07c-.1-.11-.65-.62-.67-.66s.13.12.21.14a1.79,1.79,0,0,1,.25-.33l.12-.16.07-.09.06-.08c-.14-.09-.41-.34-.56-.45-.1.15-.39.47-.51.65-.07,0-.63-.49-.75-.57l-.26-.18a10.26,10.26,0,0,0-1-.59l-.73-.38a10.81,10.81,0,0,0-1.27-.5l-.17-.06a2,2,0,0,0-.51-.15.59.59,0,0,1,0-.2l.1-.39a.38.38,0,0,1,0-.1v-.07s0,0-.07-.06l-.62-.15a.78.78,0,0,0-.05.18c0,.08,0,.14-.05.2l-.06.2c0,.07,0,.15-.05.21l-.4-.08-.83-.12c-.24,0-.68-.06-.91-.06h-.23l-.21,0c-.11,0-.13,0-.19,0l-.72,0c0,.08-.61.67-.75.81l-.45.49a4.84,4.84,0,0,0,.39.4c.17.17.33.34.51.49l3.24,3c.07.08.13.12.21.2s.49.45.73.68l.05,0,0,0h0l.93.88h0l.13.12.1.1.21.2c.26.21.49.46.73.69l.84.77.1.11,1.9,1.77c.23.23.48.44.72.66l.23.23,0,0,.26.24.11.1.51.48h0l.06.05,0,.05,1.05,1a2,2,0,0,1,0,.38h-1v1.06h-.9a.3.3,0,0,0,0-.29s-.05-.08-.1-.1c-.21-.12-.25.08-.56.36-.1.1-.38-.06-.38.2a2.38,2.38,0,0,0,0,.6c0,.12.18.1.27.1,0,1.1,0,2.19,0,3.29v1.67l0,.63s0,0,0,0c0,.18,0,1,0,1.32v1.26c0,.15,0,.24,0,.4v1.25c0,.15,0,.25,0,.4l0,2.91c-.23,0-.18,0-.21-.18v-.4h-.06a1.07,1.07,0,0,1,0-.18c0-.07,0-.11,0-.17a.87.87,0,0,0-.36,0c-.05,0,0,.1,0,.16a1.33,1.33,0,0,1,0,.2s0,0-.07,0,0,.08,0,.14v.36s0,0,0,.05,0,0-.08,0v.26h.6v.15h0v.32s0,0,0,.05.07.12.18.12h0a2.64,2.64,0,0,0-.4,0h-.2c-.08,0-.16,0-.18,0v.19c0,.07.08,0,.16,0l.41,0c0,.36,0,.67,0,1h.87v-.22h1.22l1.22,0v1.18c0,.08,0,.09,0,.16h-.24v.73H277a5.53,5.53,0,0,0,0,.71,3.36,3.36,0,0,1,.16.33,5.68,5.68,0,0,1,0,.72l-.21.16-.11.09c-.2.15-.13.15-.13.44a1.11,1.11,0,0,0,0,.37s1.8,0,2,0v-.73l-.23-.17-.23-.17c0-.13,0-.61,0-.72s.16-.13.16-.55v-.49h.29c0-.83,0-.73-.26-.73v-1.34l2,0v.21h.87v-.66c0-.23,0-.4,0-.64-.11,0,0,0-.2,0a1.93,1.93,0,0,0,0-.24c0-.14,0-.09.08-.17a.52.52,0,0,0,.07-.39,4.19,4.19,0,0,1,0-.71c0-.1,0-.15,0-.21s-.11-.08-.11-.37v-2.38c0-.33,0-.62,0-1,0-.15,0-.4,0-.67l-.09.09-2.18-2h-2.31l-2.05,1.87v.42h-.09v.12ZM274,401l-.08,0,0-.09a.09.09,0,0,1,.17,0,.08.08,0,0,1-.07.11Zm6.8,0c-.1-.05-.1-.12,0-.18s.05.12,0,.18Zm-6.38-.06s0,0,0,0v.8h-.23v-1.65c.18,0,.14,0,.18,0s.06.12.06.29,0,.28,0,.44,0,0-.05,0Zm-.16-3.46s.1-.08.14-.11l.14-.09.3-.19a3.49,3.49,0,0,1,.59-.35c.12,0,.78,0,.85,0s0,0,.09,0h.11c.17,0,2.57,0,2.74,0a1.08,1.08,0,0,1,.45,0l.59.36.3.18v-.38c0-.13,0-.22,0-.34l-.39,0h-5.2l-.79,0c0,.12,0,.22,0,.36V398c0,.25,0,.45,0,.71v.72h.07v-2Zm0-2.37c.08.06.08.13,0,.18s-.08-.12,0-.18Zm1.61-.35h.55v.18h-.53c0-.08,0-.1,0-.18Zm2.37-.18a.09.09,0,1,1,.18,0,.09.09,0,0,1-.18,0Zm-1.14-5.77,0,0,0,0Zm0-.08h0Zm-3.4-5.29Zm-9-1.58c0-.25.37-.18.54-.18s.24,0,.36,0a1.82,1.82,0,0,1,.33,0c.23,0,.44,0,.66.05s.22,0,.33,0,.88.15,1.05.2l.14,0,.28.08.56.16,1,.4.48.24a5.7,5.7,0,0,1,.68.39c.22.14.45.27.66.42l.6.47a5.37,5.37,0,0,1,.56.51l.74.77h0l.2.22c.2.26.51.68.67.94l.27.44c.08.15.17.3.25.46l.34.72c0,.08.07.17.11.26a10.69,10.69,0,0,1,.42,1.36c0,.19.11.39.14.58s.11.62.14.93c0,.1,0,.25,0,.34s0,.23,0,.34l0,.34a.17.17,0,0,1-.29.12l-.1-.08c-.06-.06-.11-.12-.17-.17l-.09-.08-.71-.66-.09-.09-.09-.08-1.16-1.09c-.09-.07-.17-.17-.26-.25l-.63-.59-.09-.07-.43-.43-.09-.07-.09-.09-.1-.08-1.16-1.09-.18-.17-.18-.17c-.2-.2-.41-.38-.62-.58l-.8-.76c-.24-.23-.49-.44-.72-.67l-.08-.08L264.79,382c-.05,0-.15-.11-.15-.21Zm14.54,20.38H281a5.75,5.75,0,0,0,0,.65c0,.19,0,.62,0,1.05Z" transform="translate(-251.01 -308.77)"/><path class="cls-1" d="M254.37,415.76H356.5v5.32H329.3v8.57a18.4,18.4,0,0,1-6.59,1.41,6.47,6.47,0,0,1-2-.17c-.3-.08-.75-.24-.87-.57a3.94,3.94,0,0,1,.23-1.68l.68-2.48-2,1.63,0,0v-6.75h-8V431c-.47.05-.94.08-1.4.11a6.56,6.56,0,0,1-2-.17c-1.25-.36-1-1.18-.64-2.22l.77-2.5-2.06,1.61a12.8,12.8,0,0,1-2.62,1.73,14.53,14.53,0,0,1-2.64.95v-9.38h-8v6.59l-.12.09c-.31.22-.6.47-.91.69a11.77,11.77,0,0,1-1.7,1,17.92,17.92,0,0,1-6.84,1.59,8.89,8.89,0,0,1-1,0v-10h-27.2Z" transform="translate(-251.01 -308.77)"/><path class="cls-1" d="M253.16,428.89c-.66,1.05-.79,1.75-.55,2.16a1.58,1.58,0,0,0,1,.63,7.32,7.32,0,0,0,2.29.2c4.61-.23,9.22-3,9.88-3.45-.61,1.34-.35,2.81,1.2,3.25a7.32,7.32,0,0,0,2.29.2c6.57-.33,9.28-3.07,9.88-3.45-.53,1.41-.62,2.73,1.2,3.25a7.35,7.35,0,0,0,2.29.2c6.57-.33,9.22-3,9.88-3.45a2.08,2.08,0,0,0,1.21,3.25,7.25,7.25,0,0,0,2.28.2c6.57-.33,9.12-2.86,9.89-3.45-.43,1.38-.66,2.72,1.2,3.25a7.25,7.25,0,0,0,2.28.2c6.57-.33,8.94-2.68,9.89-3.45-.38,1.38-.75,2.69,1.2,3.25a7.25,7.25,0,0,0,2.28.2c6.57-.33,9-2.68,9.89-3.45-.37,1.36-.72,2.7,1.2,3.25a7.25,7.25,0,0,0,2.28.2c6.57-.33,9.18-3,9.89-3.45-.48,1.32-.87,2.66,1.2,3.25a7.25,7.25,0,0,0,2.28.2c6-.3,9.68-2.24,10.64-3-1.59,2.58-6.71,4.55-10.55,4.74a8.75,8.75,0,0,1-2.85-.25,3.26,3.26,0,0,1-2.06-1.47,2.53,2.53,0,0,1-.29-.81,18.42,18.42,0,0,1-8.17,2.53,8.75,8.75,0,0,1-2.85-.25,3.26,3.26,0,0,1-2.06-1.47,2.31,2.31,0,0,1-.29-.81,18.42,18.42,0,0,1-8.17,2.53,8.75,8.75,0,0,1-2.85-.25,3.31,3.31,0,0,1-2.07-1.47,2.51,2.51,0,0,1-.28-.81,18.42,18.42,0,0,1-8.18,2.53,8.81,8.81,0,0,1-2.85-.25,3,3,0,0,1-2.35-2.28,18.34,18.34,0,0,1-8.17,2.53,8.81,8.81,0,0,1-2.85-.25,3.31,3.31,0,0,1-2.06-1.47,2.53,2.53,0,0,1-.29-.81,18.34,18.34,0,0,1-8.17,2.53,8.81,8.81,0,0,1-2.85-.25,3.31,3.31,0,0,1-2.06-1.47,2.53,2.53,0,0,1-.29-.81,18.34,18.34,0,0,1-8.17,2.53,8.81,8.81,0,0,1-2.85-.25,3.29,3.29,0,0,1-2.06-1.47,2.53,2.53,0,0,1-.29-.81,18.38,18.38,0,0,1-8.17,2.53,8.81,8.81,0,0,1-2.85-.25C249.76,432.41,250.88,429.32,253.16,428.89Z" transform="translate(-251.01 -308.77)"/><path class="cls-1" d="M333.68,408.5h.19v4.89h-.19V408.5ZM325,322.9v1.39h.11v1.19l.13-.27h.22l.12.27v-1.19h0v1.64h-.35v.16h-.39v.15c-.35,0-.23,0-.23,1.57h-.59v5.75h.39c0,.2,0,.07-.08.12V334c.12,0,.07,0,.16.08a6.28,6.28,0,0,0,0,1c0,.2.12.09.12.24v18.75c-1.52,0-1.22-.26-1.22,1.25v42c0,.51,0,.87,0,1.37h-.74v-4.54c0-.09,0-.12-.12-.12h-5.48v4.66h-.23v-5.25c0-.12-.33-.39-.42-.48l-1.37-1.37a23.71,23.71,0,0,0-1.85-1.79h-5.52V401c0,.09,0,.11.12.11h14.6c0,.17,0,.36.23.36s.27-.11.27-.36c.34,0,.2.2,0,.33l-.17.13-.18.18-1.74,1.58c-.39.4-.53.29-1.05.29v2.54a.28.28,0,0,0-.11,0v-4.3h-.12v-.12h-1.37v.12h-3.29c-.17,0-.31,0-.31.16v4.5c-.3,0-.2.22-.2.63h3.8v8.84c0,.09,0,.12.12.12h1.13c.12,0,.11,0,.12-.16h.19c0-.15,0-.1.16-.19v.51h.82v-.78h-.15v-.47c.22,0,.22-.07.28-.23v-.06a14.62,14.62,0,0,0,0-2.22v-2.89h5.55V410c0,.21-.07.21-.07.43V411c0,.1.1.25.11.39h.36a.35.35,0,0,1,0-.16c0-.15,0,.07,0-.06l0-.08a2.34,2.34,0,0,0,0-.75,2.61,2.61,0,0,1-.07-.82h5.55c0,.38,0,4.73,0,5s0,0,0,.11.06.29.3.29v.47h-.15v.78h.82v-.51c.14.09.14,0,.16.19h.19c0,.12,0,.16.12.16h1.25v-8.84c0-.09,0-.12.12-.12H339c0-.41.1-.62-.2-.63v-4.5c0-.16-.14-.16-.31-.16h-3.29v-.12h-1.37c0,.35-.12-.31-.12,1.06,0,.62,0,2.71,0,3.21,0,.19,0,.12-.12.19v-2.54c-.52,0-.67.11-1.05-.29-.13-.13-.23-.18-.35-.31l-1.75-1.58c-.14-.13-.28-.3.05-.33,0,.49.51.41.51.16v-.16h7.05c.09,0,.11,0,.11-.11v-2.16c0-.16-.19-.11-.31-.11V394h-7.16v4.66H330c0-.48,0-.81,0-1.3V354.07h-1.22V335.32a1.42,1.42,0,0,0,.08-.55v-.66c.15,0,.05,0,.2-.08v-.35c-.13-.05-.06.08-.08-.12h.39v-5.75h-.59v-1.45c0-.13-.07-.12-.19-.12,0-.24-.24-.15-.43-.15v-.16h-.35v-1.64h0v1.19l.12-.27h.22l.13.27v-1.19h.11V322.9h-.11v-1.21l-.13.27H328l-.12-.27v1.21h-.06v-1.37h-.12v1.37h-.06v-1.21l-.12.27h-.22l-.12-.27v1.21h-.84v-1.21l-.13.27H326l-.12-.27v1.21h-.06v-1.37h-.12v1.37h-.06v-1.21l-.12.27h-.22l-.13-.27v1.21Zm-5.43,85.6h.19v4.89h-.19V408.5Zm11.07-.71h1.84v.39a10.56,10.56,0,0,1-1.6,0s0,0-.09,0h-.15v-.32Zm-9.7.39v-.39h1.84v.32c-.32,0-.12.05-.39.08Zm17.53-1.68H339V407h-.47v-.47Zm-24,0H315V407h-.47v-.47Zm20.74-2.19h3.37v2.11h-3.37v-2.11Zm-4.34,1.33c0-.09,0-.12.11-.12h1.57v.9H330.9v-.78Zm-.71.24c.11.08.08,0,.08.23s0,.21,0,.31h-.08v-.54Zm-3.24-.36h1v.9h-1v-.9Zm-1.45,0h1v.9h-1v-.9Zm-2.23.36v.54h-.08c0-.1,0-.21,0-.31s0-.15.09-.23Zm-2.39-.36h1.64v.9h-1.64v-.9Zm-6-1.21h3.37v2.11h-3.37v-2.11Zm14.33,2.11h-.59v-.9h1v.9h-.24v-.86h-.15v.86Zm-5.05,0h-.24c0-1.12-.23-.9,1-.9v.9h-.59v-.86h-.15v.86ZM314.85,402h3.37v2.08h-3.37V402Zm20.39,2v-2h3.37v2.08h-3.25c-.09,0-.12,0-.12-.12Zm-4.89-.43h0Zm-7.28,0h0Zm7.28-1.41a4.91,4.91,0,0,1,.6.54,1.57,1.57,0,0,1,.21.17l.79.74h-1.44v-.28h-.12c0-.44,0-.76,0-1.17Zm-1,1.37h-1.45l1.13-1c.14-.12.22-.29.4-.34a1.9,1.9,0,0,1,0,.34l0,.06v0a4.62,4.62,0,0,0,0,.94Zm-6.26-.2H323v.28h-1.44l1.18-1.09a1.81,1.81,0,0,1,.21-.18,1.68,1.68,0,0,1,.21-.18c0,.41,0,.73,0,1.17Zm1-1.17c.21.11.22.18.38.32l1.15,1.05h-1.45v-.86c0-.21-.08.13-.08-.51Zm2.9,1.33V401.1h2.46v.16a12.63,12.63,0,0,0-1.22,1.08L327,403.45Zm-2.9-2.35h2.46v2.35c-.26-.18-1.26-1.17-1.52-1.37a10.55,10.55,0,0,0-.94-.82v-.16Zm6.69,0h.12v.12h-.12v-.12Zm-8.14,0h.12v.12h-.12v-.12Zm7.63-2.27h.12c.15,0,0,0,.12,0v.67h-.24v-.63Zm-7.28,0a.75.75,0,0,0,.28,0v.63H323v-.67Zm.43.39h0v.24h0v-.24Zm11.08-2.66h3.21v2.16h-3.21v-2.16Zm-3.48,0h3v2.16h-3v-2.16Zm-10.37,0h1.84v2.16h-1.84v-2.16Zm-3.29,0h3.05v2.16h-3.05v-2.16Zm17.13-2.28c.17-.05,2.94-.05,3.23,0a13,13,0,0,1,0,2.07c-.21.05-3.07,0-3.26,0a16,16,0,0,1,0-2.07Zm-3.47,0h3v2h-3v-2Zm-10.37,0h1.84v2h-1.84v-2Zm-3.29,0h3.05v2h-3.05v-2ZM327,392.3l0,0a.18.18,0,0,1,0,.07c.34.47,2.39,3.52,2.42,3.64H327V392.3Zm-.44,0v3.75H324a9.94,9.94,0,0,1,.61-.95c.22-.33.4-.62.63-.94l.63-.93L326,393l.32-.47.08-.11v0l.07-.08Zm.59-.32h2.35v3.45c-.12-.09-2.27-3.33-2.35-3.45ZM324,395.43V392h2.35c-.39.59-.78,1.15-1.17,1.73-.18.27-1,1.61-1.18,1.72Zm5.44-7.48v3.49H327.1l2.26-3.38,0,0,.07-.09ZM324,388l.15.21.14.21.88,1.31c.4.58.79,1.17,1.18,1.76H324V388Zm2.94,3.17v-4.26h2.5c0,.76.06.45-.61,1.46-.06.1-.1.14-.16.23l-.48.7c-.21.33-.41.62-.62.94l-.63.93ZM324,387.37v-.51h2.5v4.22a6,6,0,0,1-.63-.89L324,387.37ZM327,379.5c.21.25,1.92,2.83,2.21,3.26s.29.38.29,1.28H327V379.5ZM324,383.3a4.25,4.25,0,0,1,.59-1l1.86-2.75.05-.07V384H324v-.74Zm3.13-4.11h2.31v3.44c-.1-.07-.71-1-.86-1.25l-.15-.21-.44-.65-.3-.45c-.21-.32-.38-.55-.56-.88ZM324,382.63v-3.44h2.31c0,.16-1.2,1.83-1.41,2.15s-.8,1.22-.9,1.29Zm5.44-7.47v3.48H327.1l2.35-3.48Zm-5.44,0c.11.07.08.09.15.2l.45.65.57.87c.2.29.39.57.58.87s.43.58.6.89H324v-3.48Zm2.94,3.13c0-.21,0-.42,0-.63,0-.59.08-.35.08-.59v-1.6c0-.14-.07-.06-.07-.2v-1.52h2.5c0,1.1.12.66-.6,1.74l-.63.94L327,378.29Zm-2.94-3.8v-.74h2.5v1.45c0,.21-.07.21-.07.43a7.36,7.36,0,0,0,.05,1.63,6.94,6.94,0,0,1,0,1,9.91,9.91,0,0,1-.64-.93l-.63-.93-.63-.94c-.11-.17-.2-.29-.31-.47a1.26,1.26,0,0,1-.29-.53Zm2.94-5.83.63.93c.15.23,1.87,2.75,1.87,2.83v.78H327v-4.54ZM324,372.42c0-.08,1.68-2.54,1.87-2.83l.63-.93v4.54H324v-.78Zm3.09-4.07h2.35v3.48l-2.35-3.48ZM324,371.83v-3.48h2.35l-.58.87-.59.86-.58.87-.29.44-.24.35,0,0-.05.06Zm4-5.4v1.25c.72,0,.55.26.55-1.44.15,0,.09,0,.19,0,0-1-.11-.8.58-1.77l0,0,.07,3.4H327.1l.87-1.28a.35.35,0,0,1,.07-.09Zm-4-2.11.07.08.44.66c.23.35.16.48.16,1.14.09.05.07,0,.23,0v1.44h.51v-1.25c.19.22.78,1.13.94,1.37H324v-3.48Zm2.94,3.17V366h1l-.9,1.4c0,.05,0,.05-.07.09ZM325.54,366h1v1.49l-.05-.07-.06-.09-.82-1.22a.82.82,0,0,1,0-.11Zm1.41-2.7c0-.06.19-.35.31-.35H328v2.5H327V363.3Zm-1.53,1.76a3,3,0,0,1,.52-.65,6,6,0,0,1,.57-.64v1.68h-1.09v-.39Zm3.36-.31V363h.67c0,1,.11.7-.56,1.67l-.11.13Zm-4.77-1V363h.67v1.8l-.34-.49a3.22,3.22,0,0,1-.33-.53Zm1.41.78V363h1.09c0,.57-.13.42-.64,1.08l-.45.48Zm3.36-4.18.67,1v1.06h-.67v-2.07ZM328,362v.39h-.35c.05-.08.1-.12.15-.2a.9.9,0,0,1,.2-.19Zm-2.62-.78h1.09v1.17h-1.09v-1.17Zm-1.41.11.61-.95.06-.06v2.07H324v-1.06Zm3.21,1.06H327v-1.17H328c0,.53-.16.42-.57.95-.06.09-.13.22-.25.22Zm-.27-3.6a2.07,2.07,0,0,1,.27.31l.28.31.27.31a2.09,2.09,0,0,0,.14.17c.19.2.13.16.13.78H327V358.8Zm-1.53.51a6.33,6.33,0,0,1,.82-1.29c.08.05.27.2.27.31v2.35h-1.09v-1.37Zm3.36.43v-2.47h.67v3.49l-.17-.23-.17-.26a3.22,3.22,0,0,1-.33-.53Zm-4.77,1v-3.49h.67v2.47a7.19,7.19,0,0,1-.49.77l-.13.18-.05.07Zm2.94-3.17.3.44.31.46c.41.62.48.57.48,1.09l-.54-.6c-.69-.82-.55-.44-.55-1.39Zm-.47,0s0,0,0,.08a.75.75,0,0,1,0,.15c-.13-.1-.08-.06,0-.23Zm-1.06,1.05v-1.37c.34,0,.21,0,.4.23l.23.24a9.25,9.25,0,0,1-.63.9Zm1.68-1.37H328v1.37a1,1,0,0,1-.12-.15l-.82-1.22Zm-1.05,0h.31a.64.64,0,0,1-.16.2.5.5,0,0,1-.15-.2Zm.9-1H328v.54H327v-.54Zm1.83-1.8h0v2.3h0v-2.3Zm-3.36,2v-.23h1.09v.54c-.46,0-.79.07-.95-.1a.36.36,0,0,1-.14-.21Zm1.53-2H328v1.25H327V354.5Zm-1.53.66c0-.12.31-.4.41-.53s.08-.13.68-.13v1.25h-1.09v-.59Zm0-.54v-.12h.12l-.11.12ZM327,353.4a10.52,10.52,0,0,1,1.09-1.29v2H327v-.67Zm-.44.46v.21h-.19l.19-.21Zm-.66.21h-.43v-2.74h1.09v2c0,.09-.52.75-.66.75Zm1.1-1.22v-1.52H328c0,.44,0,.31-.22.56a11.08,11.08,0,0,1-.87,1Zm0-4,.85,1c.28.35.24.09.24.9H327V348.9Zm-1.53-1.76.85,1c.11.11.24.18.24.38v2.27h-1.09v-3.64Zm1.53,1.25v-2H328v3.28a1.61,1.61,0,0,1-.28-.3,7.37,7.37,0,0,1-.81-1Zm-1.53-1.76v-.23h1.09v1.52a12.19,12.19,0,0,1-1.09-1.29ZM327,343.5c0-.08.15-.23.24-.34l.85-1v3.64H327V343.5Zm-1.53,1.76a12.19,12.19,0,0,1,1.09-1.29v1.88h-1.09v-.59Zm1.56-3.83H328c0,.52-.1.37-.51.89L327,343a1.65,1.65,0,0,1,.07-.66,3.73,3.73,0,0,0,0-.9Zm-.54.19v.55c0,.21.07.22.07.43,0,1.26.09.74-.51,1.48-.19.24-.39.45-.58.67v-3.32h1.06a.53.53,0,0,0,0,.19Zm-1-4.34a11.42,11.42,0,0,1,.83.92c.1.12.23.17.23.37v2.35h-1.06v-3.64Zm1.56,1.8.4.42c.74.82.66.65.66,1.3,0,.2-.39.12-.94.12-.19,0-.12-.48-.12-.86v-1Zm0-.55v-.82c.59,0,.47.13.47-.78h.28v-.44H328v3.29a10.68,10.68,0,0,1-1.06-1.25Zm-.74-.82h.24V338a1,1,0,0,1-.24-.27Zm-.82-1v-.24h.31v.44h.32v.54a3.1,3.1,0,0,1-.63-.74Zm2.31-.94H328V336h-.31v-.16Zm-2.31,0h.31V336h-.31v-.16Zm2.39-2.23H328v.7h-.23v-.7Zm-2.39,0h.23v.7h-.23v-.7Zm0-6,.24.23h-.24v-.24Zm0-.55v-.23H328v1h-1.92c-.13,0-.7-.72-.7-.79Zm.35-1.36h1.92v.27h-1.92Z" transform="translate(-251.01 -308.77)"/></svg>